<svg width="257" height="258" viewBox="0 0 257 258" fill="none" xmlns="http://www.w3.org/2000/svg">
<path d="M174.06 209.096L174.593 209.093L174.626 209.043C183.423 208.656 202.803 206.555 224.443 196.181L224.443 196.181C230.963 193.052 237.266 189.332 243.265 185.105C225.828 220.868 192.05 247.089 152.83 254.664C142.149 250.976 132.137 245.972 123.03 239.781C107.232 228.983 96.9669 216.583 91.6638 209.096H170.254C170.463 209.106 170.821 209.106 171.234 209.106H171.285C171.461 209.106 172.156 209.103 172.804 209.101L173.675 209.097L173.955 209.096L174.033 209.096L174.053 209.096L174.058 209.096L174.059 209.096L174.06 209.096Z" stroke="white" stroke-width="2"/>
<path d="M220.104 130.062L220.442 129.488L220.392 129.421C224.444 121.66 232.397 103.772 234.212 79.7471C234.76 72.5348 234.686 65.2516 234.036 57.9542C248.253 78.9572 256 103.98 256 129.485C256 143.724 253.673 157.672 249.08 171.006C240.534 178.411 231.18 184.582 221.264 189.356C204.027 197.637 188.15 200.326 179.026 201.192L218.325 133.129C218.535 132.814 218.93 132.133 219.433 131.204L220.104 130.062Z" stroke="white" stroke-width="2"/>
<path d="M83.0264 49.9043L82.0352 49.9131V49.9745C73.0822 50.3863 53.9157 52.5825 32.5766 62.8186L32.5754 62.8192C26.0548 65.9578 19.7495 69.6651 13.7473 73.8905C31.1477 38.1166 64.9366 11.9014 104.17 4.32549C114.849 8.00303 124.86 13.0364 133.949 19.2087C149.773 29.9956 160.022 42.4187 165.333 49.9042H86.7559C86.5141 49.8838 86.1526 49.8838 85.743 49.8839L85.6634 49.8839C85.4906 49.8839 84.8276 49.8891 84.2154 49.8941L83.3901 49.9011L83.1256 49.9034L83.0522 49.904L83.0329 49.9042L83.028 49.9043L83.0267 49.9043L83.0264 49.9043Z" stroke="white" stroke-width="2"/>
<path d="M82.2512 208.578L82.5404 209.075H82.6243C87.2983 216.454 98.8286 232.282 118.736 245.898C124.7 249.981 131.061 253.581 137.727 256.661C134.657 256.889 131.573 257 128.484 257C91.5424 257 56.494 240.998 32.2349 213.092C30.11 202.03 29.4527 190.855 30.2615 179.91C31.7061 160.832 37.3198 145.729 41.1375 137.387L80.446 205.447C80.6117 205.755 80.9914 206.431 81.5634 207.394C81.5643 207.396 81.5651 207.397 81.5659 207.399L82.2512 208.578Z" stroke="white" stroke-width="2"/>
<path d="M174.394 49.4221L174.105 48.9246L174.021 48.9246C169.347 41.5458 157.817 25.7175 137.909 12.1022C131.945 8.01932 125.584 4.4192 118.918 1.33903C121.989 1.11068 125.072 0.999983 128.161 0.999984C165.103 0.999987 200.151 17.0015 224.41 44.908C226.535 55.9698 227.192 67.1452 226.384 78.0898C224.939 97.1676 219.325 112.271 215.508 120.613L176.199 52.5531C176.033 52.2448 175.654 51.569 175.082 50.6055C175.081 50.6041 175.08 50.6027 175.079 50.6012L174.394 49.4221Z" stroke="white" stroke-width="2"/>
<path d="M35.7255 69.6444L35.7268 69.6438C52.9847 61.315 68.8553 58.6576 77.9943 57.7966L38.6962 125.848C38.5284 126.099 38.2258 126.632 37.8342 127.321C37.7437 127.48 37.6483 127.648 37.5488 127.823L37.5479 127.824L36.9086 128.951L36.7111 129.298L36.7252 129.355C32.7 136.976 24.6306 154.986 22.778 179.232L22.7778 179.234C22.2473 186.444 22.3086 193.741 22.9613 201.043C8.73769 180.039 1 154.999 1 129.485C1 115.286 3.32666 101.318 7.91022 87.9936C16.4565 80.5886 25.8205 74.4072 35.7255 69.6444Z" stroke="white" stroke-width="2"/>
</svg>
