<svg width="518" height="687" viewBox="0 0 518 687" fill="none" xmlns="http://www.w3.org/2000/svg">
<path d="M255.409 681.279L459.826 408.768C493.061 364.564 510.817 310.791 510.817 255.651C510.817 114.382 396.543 0 255.409 0C114.274 0 0 114.382 0 255.651C0 310.791 17.7556 364.564 50.9906 408.768L255.409 681.279Z" fill="#49FFDA"/>
<path d="M57 367.797C69.0684 366.745 74.5965 364.453 82.7576 358C96.6806 369.709 117.101 371.859 133.113 358C142.718 365.964 148.428 368.036 158.638 368.036C168.848 368.036 176.1 364.179 183.7 358C191.892 364.949 198.319 368.036 208.993 368.036C219.667 368.036 226.836 363.878 233.823 358C243.256 365.677 250.53 368.036 260.276 368.036C270.022 368.036 276.965 364.183 283.945 358C292.169 364.525 299.261 368.036 309.703 368.036C320.145 368.036 326.261 365.263 334.3 358C342.778 364.637 348.92 368.036 360.522 368.036C372.125 368.036 377.125 364.88 385.119 358C384.022 358.233 397.412 368.572 410.877 368.036C424.342 367.5 427.902 363.78 435.242 358C443.68 365.136 449.242 367.439 461 367.797V379.983C449.996 379.42 444.284 377.979 435.242 372.576C427.96 377.339 425.264 379.983 410.877 379.983C396.49 379.983 392.524 377.004 385.119 372.576C376.903 377.663 371.428 379.744 360.522 379.983C349.616 380.222 342.779 377.891 334.3 372.576C326.059 377.597 320.145 379.744 309.703 379.744C299.261 379.744 292.945 377.828 283.945 372.576C277.248 377.514 272.575 379.267 260.276 379.505C247.978 379.744 242.375 377.738 233.823 372.576C225.372 377.865 219.435 379.744 208.993 379.744C198.551 379.744 192.294 377.779 183.7 372.576C175.807 377.158 171.401 379.744 158.638 379.744C145.875 379.744 141.34 377.569 133.113 372.576C124.844 377.646 118.957 379.744 106.659 379.505C94.3601 379.267 89.8562 377.674 82.7576 372.576C74.5124 377.626 68.8717 379.17 57 379.505V367.797Z" fill="#000"/>
<path d="M158.127 192.85C157.521 185.488 157.339 181.362 161.132 174.069C165.807 167.408 169.44 164.476 179.391 162.012C177.223 169.079 176.747 172.871 177.079 179.402C182.827 170.818 186.381 166.214 199.037 162.012C209.629 160.465 215.5 161.455 225.848 167.345C217.011 173.182 211.927 177.143 202.504 186.126C213.136 184.879 218.904 183.622 231.626 188.445C242.898 195.581 246.218 201.441 249.192 213.718C226.252 209.69 213.139 209.829 189.56 211.864C218.97 236.023 232.012 252.197 245.956 288.148C260.887 239.497 277.227 214.044 325.002 172.91C307.788 176.033 298.667 179.002 283.168 186.126C284.316 177.24 285.607 172.377 298.884 165.722C273.333 165.233 261.074 166.204 243.645 170.591C250.723 143.17 260.09 134.476 285.479 129.783C311.7 128.7 323.353 134.205 337.714 156.911C331.675 135.399 315.754 124.4 276.927 105.668C291.016 96.3446 301.025 90.1475 328.7 104.509C346.691 119.432 350.871 129.856 350.657 151.114C355.058 131.55 351.923 119.613 341.874 97.553C351.677 100.466 357.105 100.787 367.53 115.639C370.914 122.338 371.869 127.692 371.69 140.448C382.066 139.431 389.487 139.753 399.657 146.245C409.826 152.737 412.892 161.114 413.987 169.896C385.978 158.741 375.075 157.835 360.827 162.012C383.425 161.549 392.454 165.696 403.355 179.402C420.079 201.54 419.39 213.751 406.128 235.282C387.841 196.951 376.768 182.259 354.818 174.301C376.484 189.242 380.899 197.024 382.322 221.37C383.744 245.716 367.312 262.879 342.106 268.439C345.161 248.374 346.141 236.46 346.497 213.95C339.564 225.597 335.186 228.815 326.389 228.326C332.559 212.124 335.492 201.992 339.563 182.185C295.055 228.189 280.597 255.912 273.691 309.016C316.681 312.958 352.044 327.333 372.846 354.462C393.647 381.59 370.303 359.563 359.671 359.563C349.039 359.563 341.137 354.642 334.247 345.187C334.247 345.187 323.384 359.563 309.747 359.563C296.111 359.563 291.207 355.436 283.861 345.187C276.071 355.147 270.687 359.563 258.437 359.563C246.187 359.563 241.671 355.344 233.706 345.187C227.098 354.702 221.834 358.388 207.357 359.563C196.159 357.973 190.805 355.212 183.782 345.187C176.084 355.02 170.833 359.196 156.509 359.563C150.722 359.402 147.911 358.25 143.566 354.462C166.604 329.588 184.423 320.242 224.692 311.335C221.349 278.223 213.874 258.929 178.235 221.602C174.196 249.808 174.494 263.332 179.391 283.511C166.457 280.27 160.304 277.555 155.122 267.975C149.434 258.038 149.147 251.025 152.349 236.673C144.454 243.241 140.383 248.782 133.396 260.092C128.642 256.002 126 249.89 126 238.992C126 228.094 134.772 217.947 144.953 211.864L127.387 213.718C129.158 207.024 128.643 203.324 138.943 196.328C147.302 191.676 151.208 192.037 158.127 192.85Z" fill="#000"/>
</svg>
