<svg width="512" height="512" viewBox="0 0 512 512" fill="none" xmlns="http://www.w3.org/2000/svg">
<mask id="mask0" mask-type="alpha" maskUnits="userSpaceOnUse" x="0" y="0" width="512" height="512">
<path d="M256 512C397.385 512 512 397.385 512 256C512 114.615 397.385 0 256 0C114.615 0 0 114.615 0 256C0 397.385 114.615 512 256 512Z" fill="white"/>
</mask>
<g mask="url(#mask0)">
<path d="M35.5 256H479.5L512 189.2V0H322.8L256 31.8V476.4L189.2 512H0V322.8L35.5 256Z" fill="#D80027"/>
<path d="M479.5 256H35.5L0 189.2V0H189.2L256 31.8V476.4L322.8 512H512V322.8L479.5 256Z" fill="#0052B4"/>
<path d="M189.2 0H322.8V189.2H512V322.8H322.8V512H189.2V322.8H0V189.2H189.2V0Z" fill="#EEEEEE"/>
<path d="M322.8 256C322.8 264.772 321.072 273.459 317.715 281.563C314.358 289.668 309.438 297.032 303.235 303.235C297.032 309.438 289.668 314.358 281.563 317.715C273.459 321.072 264.772 322.8 256 322.8C247.228 322.8 238.542 321.072 230.437 317.715C222.332 314.358 214.968 309.438 208.765 303.235C202.563 297.032 197.642 289.668 194.285 281.563C190.928 273.459 189.2 264.772 189.2 256C189.2 219.1 256 189.2 256 189.2C256 189.2 322.8 219.2 322.8 256Z" fill="#496E2D"/>
<path d="M189.2 256C189.2 247.228 190.928 238.542 194.285 230.437C197.642 222.332 202.563 214.968 208.765 208.765C214.968 202.563 222.332 197.642 230.437 194.285C238.542 190.928 247.228 189.2 256 189.2C264.772 189.2 273.459 190.928 281.563 194.285C289.668 197.642 297.032 202.563 303.235 208.765C309.438 214.968 314.358 222.332 317.715 230.437C321.072 238.542 322.8 247.228 322.8 256" fill="#0052B4"/>
<path d="M218.4 222.6V264.3C218.4 274.272 222.361 283.836 229.413 290.887C236.464 297.939 246.028 301.9 256 301.9C265.972 301.9 275.536 297.939 282.587 290.887C289.638 283.836 293.6 274.272 293.6 264.3V222.6H218.4Z" fill="#D80027"/>
<g style="mix-blend-mode:difference">
<circle cx="256" cy="256" r="256" fill="white"/>
</g>
</g>
</svg>
